HIERARCHY
ROOT Hips
{
    OFFSET 0.000000 0.000000 0.000000
    CHANNELS 6 Xposition Yposition Zposition Zrotation Xrotation Yrotation
    JOINT Spine
    {
        OFFSET -0.000000 14.517291 0.000000
        CHANNELS 3 Zrotation Xrotation Yrotation
        JOINT Spine1
        {
            OFFSET -0.000000 37.558300 0.000000
            CHANNELS 3 Zrotation Xrotation Yrotation
            JOINT Neck
            {
                OFFSET -0.000000 37.404057 3.400369
                CHANNELS 3 Zrotation Xrotation Yrotation
                JOINT Head
                {
                    OFFSET -0.000000 24.785618 -3.540803
                    CHANNELS 3 Zrotation Xrotation Yrotation
                    End Site
                    {
                        OFFSET -0.000000 35.408028 0.000000
                    }
                }
            }
            JOINT LeftShoulder
            {
                OFFSET 6.992933 33.973492 -0.192664
                CHANNELS 3 Zrotation Xrotation Yrotation
                JOINT LeftArm
                {
                    OFFSET 21.527611 0.000000 0.000000
                    CHANNELS 3 Zrotation Xrotation Yrotation
                    JOINT LeftForeArm
                    {
                        OFFSET 56.353916 0.000000 0.000000
                        CHANNELS 3 Zrotation Xrotation Yrotation
                        JOINT LeftHand
                        {
                            OFFSET 47.774071 0.000000 0.000000
                            CHANNELS 3 Zrotation Xrotation Yrotation
                            End Site
                            {
                                OFFSET 26.556021 0.000000 0.000000
                            }
                        }
                    }
                }
            }
            JOINT RightShoulder
            {
                OFFSET -7.065357 33.973492 -0.192664
                CHANNELS 3 Zrotation Xrotation Yrotation
                JOINT RightArm
                {
                    OFFSET -21.527611 0.000000 0.000000
                    CHANNELS 3 Zrotation Xrotation Yrotation
                    JOINT RightForeArm
                    {
                        OFFSET -56.353916 0.000000 0.000000
                        CHANNELS 3 Zrotation Xrotation Yrotation
                        JOINT RightHand
                        {
                            OFFSET -47.774071 0.000000 0.000000
                            CHANNELS 3 Zrotation Xrotation Yrotation
                            End Site
                            {
                                OFFSET -26.556021 0.000000 0.000000
                            }
                        }
                    }
                }
            }
        }
    }
    JOINT LeftUpLeg
    {
        OFFSET 17.704014 0.000000 0.000000
        CHANNELS 3 Zrotation Xrotation Yrotation
        JOINT LeftLeg
        {
            OFFSET -0.000000 -81.181816 0.000000
            CHANNELS 3 Zrotation Xrotation Yrotation
            JOINT LeftFoot
            {
                OFFSET -0.000000 -62.821102 0.000000
                CHANNELS 3 Zrotation Xrotation Yrotation
                JOINT LeftToeBase
                {
                    OFFSET -0.000000 -11.507608 26.556021
                    CHANNELS 3 Zrotation Xrotation Yrotation
                    End Site
                    {
                        OFFSET -0.000000 0.000000 7.081605
                    }
                }
            }
        }
    }
    JOINT RightUpLeg
    {
        OFFSET -17.704014 0.000000 0.000000
        CHANNELS 3 Zrotation Xrotation Yrotation
        JOINT RightLeg
        {
            OFFSET -0.000000 -81.181816 0.000000
            CHANNELS 3 Zrotation Xrotation Yrotation
            JOINT RightFoot
            {
                OFFSET -0.000000 -62.821102 0.000000
                CHANNELS 3 Zrotation Xrotation Yrotation
                JOINT RightToeBase
                {
                    OFFSET -0.000000 -11.507608 26.556021
                    CHANNELS 3 Zrotation Xrotation Yrotation
                    End Site
                    {
                        OFFSET -0.000000 0.000000 7.081605
                    }
                }
            }
        }
    }
}
MOTION
Frames:    14
Frame Time:    0.008333
34.744770    160.209961    -96.794518    -2.894137    -0.152031    24.115723    -0.574158    -5.439888    -2.592202    -10.390540    2.230206    -0.649422    18.096714    -1.791006    2.789236    3.022421    1.459292    0.294407    10.658187    6.576417    -13.937351    -39.245548    10.879516    -53.084984    -8.918377    -21.387848    -115.659142    -3.467926    -33.701317    -11.577540    -16.490242    -2.124022    -9.036278    4.094880    5.498436    18.498804    17.081285    20.193899    -9.132905    8.610829    21.189104    -4.125041    10.219490    4.521404    0.993467    -8.526635    17.917585    -17.063242    4.067559    -22.093649    44.416542    0.000000    0.000000    0.000000    -10.378599    -24.872101    -5.889997    10.183043    24.459047    -12.604505    0.870414    9.042745    -12.651685    0.000000    0.000000    0.000000    
34.771996    160.206833    -96.792114    -2.887308    -0.153436    24.115459    -0.579491    -5.446860    -2.599817    -10.380041    2.230906    -0.652034    18.092199    -1.813934    2.801160    3.035514    1.475978    0.305060    10.671830    6.541612    -13.939261    -39.238785    10.821859    -53.087322    -8.935295    -21.348316    -115.641136    -3.422382    -33.688984    -11.546569    -16.460646    -2.136482    -9.040611    4.220628    5.445218    18.524193    17.104282    20.214556    -9.230697    8.617495    21.220524    -4.187703    10.201689    4.537249    1.007874    -8.520217    17.904739    -17.031157    4.067527    -22.091450    44.373589    0.000000    0.000000    0.000000    -10.391875    -24.865416    -5.882306    10.184542    24.461636    -12.608823    0.874194    9.034214    -12.660611    0.000000    0.000000    0.000000    
34.796917    160.205490    -96.790779    -2.878858    -0.139947    24.109983    -0.603501    -5.457764    -2.604306    -10.347833    2.216131    -0.655116    18.081436    -1.841741    2.815191    3.047948    1.499048    0.317701    10.680118    6.530858    -13.922005    -39.220078    10.804935    -53.117348    -8.923535    -21.375620    -115.624008    -3.417669    -33.693962    -11.533751    -16.427219    -2.122686    -9.052933    4.327559    5.448895    18.553068    17.018167    20.065163    -9.072125    8.543350    21.052549    -4.090367    10.177775    4.538143    1.034357    -8.507638    17.902992    -17.071724    4.065526    -22.098991    44.389530    0.000000    0.000000    0.000000    -10.408119    -24.876957    -5.883928    10.173189    24.474106    -12.596569    0.895487    9.018060    -12.656655    0.000000    0.000000    0.000000    
34.822495    160.205124    -96.789116    -2.878577    -0.130378    24.117527    -0.616768    -5.474561    -2.618119    -10.324602    2.200760    -0.661294    18.100557    -1.843359    2.823251    3.027050    1.504971    0.319912    10.702327    6.519914    -13.928113    -39.172684    10.830195    -53.135117    -8.889004    -21.483414    -115.614838    -3.436850    -33.739697    -11.545186    -16.384783    -2.119482    -9.048868    4.424475    5.424720    18.569635    17.063591    20.263945    -9.140795    8.497593    21.278944    -3.884614    10.159181    4.532728    1.036265    -8.495737    17.901955    -17.063175    4.064306    -22.099852    44.384968    0.000000    0.000000    0.000000    -10.424640    -24.882648    -5.874091    10.180863    24.477875    -12.612021    0.899902    9.011827    -12.665582    0.000000    0.000000    0.000000    
34.850956    160.206314    -96.789352    -2.880531    -0.117788    24.124226    -0.624328    -5.500972    -2.634088    -10.299397    2.201032    -0.666931    18.101246    -1.849903    2.832444    3.017128    1.501649    0.327578    10.709437    6.504751    -13.927347    -39.155121    10.822291    -53.146679    -8.867188    -21.532843    -115.608841    -3.485460    -33.748024    -11.585513    -16.369848    -2.125695    -9.055344    4.533315    5.427695    18.616592    17.045950    20.024195    -9.037019    8.570911    20.994650    -4.282306    10.143293    4.518164    1.037190    -8.491042    17.908712    -17.054956    4.065804    -22.100142    44.380695    0.000000    0.000000    0.000000    -10.437334    -24.893238    -5.881622    10.174716    24.484253    -12.599361    0.904872    9.014677    -12.682844    0.000000    0.000000    0.000000    
34.878002    160.207825    -96.785400    -2.887525    -0.115405    24.134087    -0.630456    -5.514716    -2.653332    -10.263577    2.182244    -0.675632    18.091516    -1.859243    2.845409    3.039657    1.516404    0.343030    10.717187    6.502662    -13.932744    -39.140064    10.822510    -53.158924    -8.855264    -21.585588    -115.609337    -3.527986    -33.774616    -11.616412    -16.358574    -2.131624    -9.045950    4.627113    5.476240    18.648199    17.093372    20.062107    -9.022686    8.494628    21.042757    -4.192766    10.140629    4.509824    1.022015    -8.493194    17.915619    -17.054365    4.069393    -22.100540    44.386318    0.000000    0.000000    0.000000    -10.443863    -24.886160    -5.851374    10.188714    24.473736    -12.623535    0.903729    9.012418    -12.684142    0.000000    0.000000    0.000000    
34.903835    160.211075    -96.782211    -2.894346    -0.116010    24.137562    -0.633571    -5.526422    -2.668697    -10.235619    2.170522    -0.682247    18.117304    -1.861928    2.861162    3.008670    1.516299    0.349712    10.723949    6.498588    -13.930971    -39.144398    10.801186    -53.168163    -8.848020    -21.591999    -115.612045    -3.559906    -33.768002    -11.631217    -16.342541    -2.147788    -9.022769    4.717618    5.615100    18.656593    17.095985    20.080669    -8.961109    8.433736    21.057627    -4.151648    10.137383    4.502914    1.026475    -8.485505    17.930649    -17.047503    4.057971    -22.103266    44.380680    0.000000    0.000000    0.000000    -10.440956    -24.883240    -5.847541    10.180210    24.471094    -12.635224    0.922561    9.018982    -12.687314    0.000000    0.000000    0.000000    
34.928661    160.211731    -96.782776    -2.901413    -0.122062    24.142738    -0.635380    -5.526589    -2.681440    -10.204154    2.149420    -0.688907    18.155308    -1.845552    2.863529    2.955897    1.496786    0.343334    10.733366    6.493242    -13.940590    -39.099453    10.844890    -53.186157    -8.811436    -21.700201    -115.617134    -3.578180    -33.814499    -11.648686    -16.318068    -2.121488    -9.010781    4.813178    5.725912    18.683630    17.087172    20.070715    -8.903533    8.431729    21.044584    -4.071219    10.141432    4.497416    1.016540    -8.491397    17.952076    -17.055038    4.077571    -22.107409    44.395893    0.000000    0.000000    0.000000    -10.436676    -24.878876    -5.853282    10.170815    24.472105    -12.633555    0.922755    9.032413    -12.691751    0.000000    0.000000    0.000000    
34.957005    160.211807    -96.780655    -2.900251    -0.131356    24.148972    -0.643430    -5.519877    -2.694955    -10.171836    2.133739    -0.695292    18.139036    -1.840679    2.860123    2.987035    1.466554    0.347670    10.736105    6.495811    -13.938600    -38.434994    11.620083    -53.373882    -8.239175    -23.166800    -115.610130    -3.892555    -34.331673    -11.685760    -16.291927    -2.095393    -8.985281    4.924675    5.853893    18.681171    17.026011    20.005356    -8.804008    8.450725    20.963688    -4.024593    10.138428    4.498860    1.000672    -8.493980    17.982035    -17.050058    4.076744    -22.124296    44.387997    0.000000    0.000000    0.000000    -10.437571    -24.866581    -5.866373    10.148216    24.481733    -12.609499    0.939986    9.030766    -12.697007    0.000000    0.000000    0.000000    
34.986038    160.208679    -96.777306    -2.901463    -0.139040    24.149330    -0.644631    -5.529802    -2.700152    -10.151816    2.136036    -0.697153    18.163784    -1.829029    2.859932    2.967595    1.431659    0.343031    10.744538    6.499068    -13.946535    -38.417809    11.632970    -53.403221    -8.217011    -23.223574    -115.616226    -3.910144    -34.352665    -11.695098    -16.276739    -2.095368    -8.982020    5.056693    5.995623    18.687025    17.019096    20.104427    -8.767703    8.425097    21.073360    -3.792128    10.137848    4.490695    0.998508    -8.496618    18.134321    -17.112984    4.114409    -22.236080    44.419403    0.000000    0.000000    0.000000    -10.441698    -24.854149    -5.853156    10.157386    24.478483    -12.626381    0.923083    9.028301    -12.690631    0.000000    0.000000    0.000000    
35.016293    160.203934    -96.772079    -2.895593    -0.162369    24.152004    -0.647606    -5.516811    -2.704495    -10.125229    2.135416    -0.699135    18.171438    -1.825255    2.853098    2.971244    1.391217    0.337367    10.739331    6.496399    -13.954018    -38.380249    11.665487    -53.428719    -8.185973    -23.295454    -115.628273    -3.900146    -34.379753    -11.674673    -16.254894    -2.089832    -8.998607    5.199686    6.074193    18.725191    16.977676    19.979567    -8.665568    8.525484    20.935732    -3.693134    10.135290    4.510036    0.994504    -8.497983    18.154591    -17.115324    4.113847    -22.259712    44.420914    0.000000    0.000000    0.000000    -10.442179    -24.827425    -5.831200    10.159217    24.481228    -12.638067    0.944577    9.014593    -12.714150    0.000000    0.000000    0.000000    
35.048653    160.202133    -96.765182    -2.887780    -0.186537    24.152170    -0.633182    -5.501781    -2.701507    -10.142029    2.123034    -0.699185    18.138584    -1.800946    2.826337    3.069001    1.347825    0.332850    10.761790    6.509240    -13.979283    -38.371487    11.671677    -53.443241    -8.175870    -23.327770    -115.640877    -3.974446    -34.390717    -11.708081    -16.191854    -2.072894    -9.018414    5.336757    6.175189    18.754803    16.857302    19.629684    -8.402671    8.724493    20.532682    -3.747025    10.130463    4.537234    0.973015    -8.503084    18.166214    -17.118515    4.143320    -22.255245    44.437298    0.000000    0.000000    0.000000    -10.445306    -24.796247    -5.820943    10.159771    24.482601    -12.637424    0.925007    9.016103    -12.706128    0.000000    0.000000    0.000000    
35.079281    160.195511    -96.760475    -2.882267    -0.201738    24.151131    -0.622094    -5.509850    -2.705030    -10.151255    2.137247    -0.699059    18.114325    -1.763048    2.806963    3.143010    1.256382    0.335844    10.771503    6.496091    -13.991822    -38.371029    11.685151    -53.440708    -8.161869    -23.345722    -115.652992    -3.996634    -34.388554    -11.717051    -16.128952    -2.043535    -9.043996    5.484143    6.143671    18.803816    16.833920    19.491096    -8.239027    8.991505    20.365032    -3.708346    10.125896    4.556020    0.989867    -8.507347    18.179497    -17.131746    4.148623    -22.273672    44.437054    0.000000    0.000000    0.000000    -10.449599    -24.776514    -5.802814    10.164857    24.483034    -12.651925    0.929546    9.005073    -12.713333    0.000000    0.000000    0.000000    
35.111649    160.191376    -96.753433    -2.874403    -0.222726    24.150049    -0.617990    -5.524979    -2.701247    -10.153591    2.172842    -0.694582    18.118378    -1.749729    2.788336    3.171057    1.206005    0.322430    10.785630    6.489375    -14.024646    -38.374573    11.683134    -53.444660    -8.156649    -23.358093    -115.665604    -3.998735    -34.395351    -11.710212    -16.058840    -2.032954    -9.067769    5.623888    6.105013    18.824280    16.874199    19.591103    -8.121168    9.272699    20.464848    -3.410940    10.121116    4.580385    0.980830    -8.511853    18.189171    -17.122803    4.146564    -22.289005    44.431229    0.000000    0.000000    0.000000    -10.457423    -24.750456    -5.785995    10.175506    24.489628    -12.657590    0.918198    8.991923    -12.715134    0.000000    0.000000    0.000000    
